<svg width="218" height="218" viewBox="0 0 218 218" fill="none" xmlns="http://www.w3.org/2000/svg">
<g id="Group 111">
<g id="Ellipse 1" filter="url(#filter0_df_30_47)">
<circle cx="109" cy="108.875" r="69" fill="black"/>
</g>
<path id="Vector" d="M144.749 119.645C146.694 118.902 148 117.011 148 114.939V105.351C148 102.51 145.658 100.198 142.779 100.198H142.246C143.826 98.1782 143.68 95.2579 141.805 93.4064L134.936 86.6272C133.452 85.1621 131.173 84.7363 129.266 85.5679C128.241 86.0147 127.021 85.7892 126.228 85.0073C125.436 84.2252 125.208 83.0203 125.66 82.0092C126.503 80.1266 126.072 77.8772 124.587 76.412L117.719 69.6327C115.683 67.6237 112.371 67.6234 110.335 69.6327L79.369 100.198H76.2212C73.3422 100.198 71 102.51 71 105.351V114.939C71 117.011 72.3064 118.902 74.2509 119.645C75.2952 120.045 75.997 121.056 75.997 122.162C75.997 123.268 75.2952 124.279 74.2509 124.678C72.3064 125.422 71 127.313 71 129.385V138.972C71 141.814 73.3422 144.126 76.2212 144.126H142.779C145.658 144.126 148 141.814 148 138.972V129.385C148 127.313 146.694 125.422 144.749 124.678C143.705 124.279 143.003 123.268 143.003 122.162C143.003 121.056 143.705 120.045 144.749 119.645ZM113.538 72.7943C113.808 72.528 114.247 72.528 114.516 72.7941L121.384 79.5734C121.556 79.7431 121.61 79.996 121.517 80.203C120.315 82.8901 120.921 86.0913 123.026 88.1685C125.13 90.2459 128.373 90.8443 131.096 89.6576C131.305 89.5664 131.562 89.6188 131.734 89.7886L138.602 96.5677C138.872 96.834 138.872 97.2674 138.602 97.5334L135.902 100.198H124.101L104.938 81.2826L113.538 72.7943ZM101.735 84.4438L117.696 100.198H85.7743L101.735 84.4438ZM75.5294 138.972V129.385C75.5294 129.145 75.673 128.929 75.8866 128.847C78.6618 127.786 80.5263 125.1 80.5263 122.162C80.5263 119.224 78.6617 116.537 75.8863 115.476C75.6728 115.395 75.5294 115.179 75.5294 114.939V105.351C75.5294 104.975 75.8398 104.669 76.2212 104.669H127.618V139.655H76.2212C75.8398 139.655 75.5294 139.349 75.5294 138.972ZM143.471 114.939C143.471 115.179 143.327 115.395 143.114 115.476C140.338 116.537 138.474 119.224 138.474 122.162C138.474 125.1 140.338 127.787 143.113 128.847C143.327 128.929 143.471 129.145 143.471 129.385V138.972C143.471 139.349 143.16 139.655 142.779 139.655H132.147V104.669H142.779C143.16 104.669 143.471 104.975 143.471 105.351V114.939Z" fill="url(#paint0_linear_30_47)"/>
</g>
<defs>
<filter id="filter0_df_30_47" x="0.400002" y="0.274513" width="217.2" height="217.2" filterUnits="userSpaceOnUse" color-interpolation-filters="sRGB">
<feFlood flood-opacity="0" result="BackgroundImageFix"/>
<feColorMatrix in="SourceAlpha" type="matrix" values="0 0 0 0 0 0 0 0 0 0 0 0 0 0 0 0 0 0 127 0" result="hardAlpha"/>
<feOffset dy="4"/>
<feGaussianBlur stdDeviation="2"/>
<feComposite in2="hardAlpha" operator="out"/>
<feColorMatrix type="matrix" values="0 0 0 0 0 0 0 0 0 0 0 0 0 0 0 0 0 0 0.25 0"/>
<feBlend mode="normal" in2="BackgroundImageFix" result="effect1_dropShadow_30_47"/>
<feBlend mode="normal" in="SourceGraphic" in2="effect1_dropShadow_30_47" result="shape"/>
<feGaussianBlur stdDeviation="19.8" result="effect2_foregroundBlur_30_47"/>
</filter>
<linearGradient id="paint0_linear_30_47" x1="109.5" y1="68.1259" x2="109.5" y2="144.126" gradientUnits="userSpaceOnUse">
<stop stop-color="#DDA624"/>
<stop offset="1" stop-color="#EAB642"/>
</linearGradient>
</defs>
</svg>
